<svg width="35" height="40" viewBox="0 0 35 40" fill="none" xmlns="http://www.w3.org/2000/svg">
<g clip-path="url(#clip0_339_7570)">
<path d="M14.241 34.4288L18.7661 23.9293M27.0181 16.8787L27.5404 24.5573C27.549 24.6803 27.5272 24.8029 27.4769 24.9148C27.4266 25.0266 27.3493 25.1243 27.2515 25.1996L14.9051 34.6964C14.7938 34.782 14.6602 34.8354 14.5187 34.851C14.3772 34.8666 14.2333 34.8438 14.1026 34.7849C13.9718 34.7261 13.8594 34.6335 13.7774 34.5172C13.6954 34.401 13.647 34.2656 13.6375 34.1257L12.5988 18.8435C12.5913 18.7338 12.6079 18.6243 12.6475 18.5224C12.6871 18.4205 12.7487 18.3285 12.8283 18.2528L18.2197 13.1377C18.3293 13.0335 18.4685 12.9642 18.6197 12.9383C18.771 12.9125 18.9276 12.9313 19.0698 12.9925L26.5406 16.2132C26.6746 16.2708 26.7902 16.3637 26.8746 16.4812C26.9589 16.5988 27.0086 16.7365 27.0181 16.8787Z" stroke="#1D2939" stroke-width="1.93251" stroke-linecap="round" stroke-linejoin="round"/>
<path d="M26.9863 16.4057L28.9967 11.7388C29.2632 11.12 29.2662 10.4178 29.0049 9.78648C28.7437 9.15515 28.2396 8.64643 27.6036 8.37219L24.0065 6.81997C23.6914 6.68411 23.3534 6.60995 23.0117 6.60173C22.67 6.59352 22.3314 6.6514 22.0152 6.77209C21.699 6.89278 21.4114 7.0739 21.1688 7.30511C20.9262 7.53631 20.7334 7.81308 20.6013 8.11959L18.591 12.7865M20.2733 20.429C20.037 20.3272 19.7835 20.2717 19.5273 20.2656C19.2711 20.2595 19.0172 20.303 18.7801 20.3936C18.543 20.4841 18.3273 20.62 18.1454 20.7934C17.9636 20.9668 17.819 21.1743 17.72 21.4042C17.621 21.634 17.5695 21.8816 17.5685 22.1329C17.5675 22.3842 17.6169 22.6343 17.714 22.8688C17.8111 23.1033 17.954 23.3176 18.1344 23.4996C18.3149 23.6816 18.5294 23.8277 18.7657 23.9295C19.2429 24.135 19.7801 24.1478 20.2589 23.9649C20.7377 23.782 21.1191 23.4185 21.319 22.9543C21.5189 22.4901 21.5211 21.9632 21.325 21.4897C21.1288 21.0161 20.7506 20.6345 20.2733 20.429Z" stroke="#1D2939" stroke-width="1.93251" stroke-linecap="round" stroke-linejoin="round"/>
</g>
<defs>
<clipPath id="clip0_339_7570">
<rect width="30.9202" height="30.9202" fill="white" transform="matrix(0.934267 -0.356574 0.382361 0.924013 0.124565 11.4175)"/>
</clipPath>
</defs>
</svg>
