<svg width="14" height="14" viewBox="0 0 14 14" fill="none" xmlns="http://www.w3.org/2000/svg">
<path d="M10.4999 5.2872C10.5 5.05256 10.4537 4.82023 10.3636 4.60358C10.2735 4.38693 10.1414 4.19025 9.97494 4.02487C9.63434 3.69986 9.18164 3.51854 8.71086 3.51854C8.24007 3.51854 7.78737 3.69986 7.44677 4.02487L0.524939 10.9485C0.209017 11.2872 0.0369466 11.7354 0.0449935 12.1985C0.0530405 12.6617 0.240576 13.1036 0.568076 13.4312C0.895576 13.7587 1.33746 13.9464 1.80059 13.9545C2.26373 13.9627 2.71194 13.7907 3.05077 13.4749L9.97494 6.55129C10.1417 6.38574 10.2739 6.18878 10.364 5.97181C10.4541 5.75483 10.5003 5.52215 10.4999 5.2872ZM2.22594 12.6512C2.10802 12.7636 1.95135 12.8263 1.78844 12.8263C1.62553 12.8263 1.46886 12.7636 1.35094 12.6512C1.2351 12.5351 1.17004 12.3777 1.17004 12.2137C1.17004 12.0497 1.2351 11.8923 1.35094 11.7762L5.88286 7.2437L6.76077 8.12162L2.22594 12.6512ZM9.15127 5.72587L7.58327 7.29445L6.70827 6.41654L8.27686 4.84854C8.33277 4.78466 8.40121 4.73294 8.47793 4.69659C8.55465 4.66024 8.63801 4.64003 8.72286 4.63722C8.80771 4.6344 8.89223 4.64904 8.97119 4.68022C9.05015 4.7114 9.12187 4.75847 9.1819 4.8185C9.24193 4.87852 9.28899 4.95024 9.32017 5.0292C9.35135 5.10816 9.36599 5.19268 9.36317 5.27753C9.36036 5.36238 9.34015 5.44574 9.3038 5.52246C9.26745 5.59918 9.21573 5.66762 9.15186 5.72354L9.15127 5.72587ZM2.83669 1.66529L3.74086 1.40745L3.99869 0.503286C4.04023 0.358202 4.12787 0.230588 4.24838 0.139741C4.36888 0.0488946 4.51569 -0.000244141 4.66661 -0.000244141C4.81752 -0.000244141 4.96433 0.0488946 5.08483 0.139741C5.20534 0.230588 5.29299 0.358202 5.33452 0.503286L5.59236 1.40745L6.49652 1.66529C6.64161 1.70682 6.76922 1.79447 6.86007 1.91498C6.95091 2.03548 7.00005 2.18229 7.00005 2.3332C7.00005 2.48412 6.95091 2.63092 6.86007 2.75143C6.76922 2.87194 6.64161 2.95958 6.49652 3.00112L5.59236 3.25895L5.33452 4.16312C5.29299 4.3082 5.20534 4.43582 5.08483 4.52666C4.96433 4.61751 4.81752 4.66665 4.66661 4.66665C4.51569 4.66665 4.36888 4.61751 4.24838 4.52666C4.12787 4.43582 4.04023 4.3082 3.99869 4.16312L3.74086 3.25895L2.83669 3.00112C2.69161 2.95958 2.56399 2.87194 2.47314 2.75143C2.3823 2.63092 2.33316 2.48412 2.33316 2.3332C2.33316 2.18229 2.3823 2.03548 2.47314 1.91498C2.56399 1.79447 2.69161 1.70682 2.83669 1.66529ZM13.4965 10.0011L12.5924 10.259L12.3345 11.1631C12.293 11.3082 12.2053 11.4358 12.0848 11.5267C11.9643 11.6175 11.8175 11.6666 11.6666 11.6666C11.5157 11.6666 11.3689 11.6175 11.2484 11.5267C11.1279 11.4358 11.0402 11.3082 10.9987 11.1631L10.7409 10.259L9.83669 10.0011C9.69161 9.95958 9.56399 9.87193 9.47315 9.75143C9.3823 9.63092 9.33316 9.48411 9.33316 9.3332C9.33316 9.18229 9.3823 9.03548 9.47315 8.91498C9.56399 8.79447 9.69161 8.70682 9.83669 8.66529L10.7409 8.40745L10.9987 7.50329C11.0402 7.3582 11.1279 7.23059 11.2484 7.13974C11.3689 7.04889 11.5157 6.99976 11.6666 6.99976C11.8175 6.99976 11.9643 7.04889 12.0848 7.13974C12.2053 7.23059 12.293 7.3582 12.3345 7.50329L12.5924 8.40745L13.4965 8.66529C13.6416 8.70682 13.7692 8.79447 13.8601 8.91498C13.9509 9.03548 14.0001 9.18229 14.0001 9.3332C14.0001 9.48411 13.9509 9.63092 13.8601 9.75143C13.7692 9.87193 13.6416 9.95958 13.4965 10.0011ZM10.357 1.4582L11.148 1.23245L11.3749 0.440286C11.4119 0.31418 11.4887 0.203437 11.5938 0.124652C11.699 0.0458678 11.8269 0.00328508 11.9583 0.00328508C12.0897 0.00328508 12.2175 0.0458678 12.3227 0.124652C12.4279 0.203437 12.5047 0.31418 12.5416 0.440286L12.7674 1.23129L13.5584 1.45704C13.6845 1.49397 13.7952 1.57077 13.874 1.67594C13.9528 1.7811 13.9954 1.90897 13.9954 2.04037C13.9954 2.17177 13.9528 2.29964 13.874 2.4048C13.7952 2.50997 13.6845 2.58677 13.5584 2.6237L12.7674 2.84945L12.5416 3.6422C12.5047 3.76831 12.4279 3.87905 12.3227 3.95784C12.2175 4.03662 12.0897 4.0792 11.9583 4.0792C11.8269 4.0792 11.699 4.03662 11.5938 3.95784C11.4887 3.87905 11.4119 3.76831 11.3749 3.6422L11.1492 2.85179L10.357 2.62487C10.2309 2.58794 10.1202 2.51114 10.0414 2.40597C9.9626 2.3008 9.92002 2.17294 9.92002 2.04154C9.92002 1.91013 9.9626 1.78227 10.0414 1.6771C10.1202 1.57194 10.2309 1.49513 10.357 1.4582Z" fill="white"/>
</svg>
