<svg width="20" height="18" viewBox="0 0 20 18" fill="none" xmlns="http://www.w3.org/2000/svg">
<path d="M18.25 0.75H1.75C1.35218 0.75 0.970644 0.908035 0.68934 1.18934C0.408035 1.47064 0.25 1.85218 0.25 2.25V17.25C0.250068 17.3778 0.282807 17.5035 0.345109 17.6151C0.407411 17.7268 0.497208 17.8206 0.605974 17.8878C0.71474 17.9549 0.838867 17.9932 0.966569 17.9989C1.09427 18.0046 1.22131 17.9775 1.33563 17.9203L4 16.5881L6.66437 17.9203C6.76857 17.9725 6.88348 17.9996 7 17.9996C7.11652 17.9996 7.23143 17.9725 7.33563 17.9203L10 16.5881L12.6644 17.9203C12.7686 17.9725 12.8835 17.9996 13 17.9996C13.1165 17.9996 13.2314 17.9725 13.3356 17.9203L16 16.5881L18.6644 17.9203C18.7787 17.9775 18.9057 18.0046 19.0334 17.9989C19.1611 17.9932 19.2853 17.9549 19.394 17.8878C19.5028 17.8206 19.5926 17.7268 19.6549 17.6151C19.7172 17.5035 19.7499 17.3778 19.75 17.25V2.25C19.75 1.85218 19.592 1.47064 19.3107 1.18934C19.0294 0.908035 18.6478 0.75 18.25 0.75ZM18.25 16.0369L16.3356 15.0787C16.2314 15.0266 16.1165 14.9995 16 14.9995C15.8835 14.9995 15.7686 15.0266 15.6644 15.0787L13 16.4119L10.3356 15.0787C10.2314 15.0266 10.1165 14.9995 10 14.9995C9.88348 14.9995 9.76857 15.0266 9.66438 15.0787L7 16.4119L4.33563 15.0787C4.23143 15.0266 4.11651 14.9995 4 14.9995C3.88349 14.9995 3.76857 15.0266 3.66437 15.0787L1.75 16.0369V2.25H18.25V16.0369ZM10.75 7.5C10.75 7.30109 10.829 7.11032 10.9697 6.96967C11.1103 6.82902 11.3011 6.75 11.5 6.75H16C16.1989 6.75 16.3897 6.82902 16.5303 6.96967C16.671 7.11032 16.75 7.30109 16.75 7.5C16.75 7.69891 16.671 7.88968 16.5303 8.03033C16.3897 8.17098 16.1989 8.25 16 8.25H11.5C11.3011 8.25 11.1103 8.17098 10.9697 8.03033C10.829 7.88968 10.75 7.69891 10.75 7.5ZM10.75 10.5C10.75 10.3011 10.829 10.1103 10.9697 9.96967C11.1103 9.82902 11.3011 9.75 11.5 9.75H16C16.1989 9.75 16.3897 9.82902 16.5303 9.96967C16.671 10.1103 16.75 10.3011 16.75 10.5C16.75 10.6989 16.671 10.8897 16.5303 11.0303C16.3897 11.171 16.1989 11.25 16 11.25H11.5C11.3011 11.25 11.1103 11.171 10.9697 11.0303C10.829 10.8897 10.75 10.6989 10.75 10.5ZM4 12.75H8.5C8.69891 12.75 8.88968 12.671 9.03033 12.5303C9.17098 12.3897 9.25 12.1989 9.25 12V6C9.25 5.80109 9.17098 5.61032 9.03033 5.46967C8.88968 5.32902 8.69891 5.25 8.5 5.25H4C3.80109 5.25 3.61032 5.32902 3.46967 5.46967C3.32902 5.61032 3.25 5.80109 3.25 6V12C3.25 12.1989 3.32902 12.3897 3.46967 12.5303C3.61032 12.671 3.80109 12.75 4 12.75ZM4.75 6.75H7.75V11.25H4.75V6.75Z" fill="#F04438"/>
</svg>
